<?xml version="1.0" encoding="UTF-8" standalone="no"?>
<svg
   xmlns:dc="http://purl.org/dc/elements/1.1/"
   xmlns:cc="http://creativecommons.org/ns#"
   xmlns:rdf="http://www.w3.org/1999/02/22-rdf-syntax-ns#"
   xmlns:svg="http://www.w3.org/2000/svg"
   xmlns="http://www.w3.org/2000/svg"
   xmlns:sodipodi="http://sodipodi.sourceforge.net/DTD/sodipodi-0.dtd"
   xmlns:inkscape="http://www.inkscape.org/namespaces/inkscape"
   height="512pt"
   version="1.1"
   viewBox="-62 0 512 512.00031"
   width="512pt"
   id="svg41"
   sodipodi:docname="piggy-bank.svg"
   inkscape:version="1.0.2 (e86c870879, 2021-01-15)">
  <metadata
     id="metadata47">
    <rdf:RDF>
      <cc:Work
         rdf:about="">
        <dc:format>image/svg+xml</dc:format>
        <dc:type
           rdf:resource="http://purl.org/dc/dcmitype/StillImage" />
      </cc:Work>
    </rdf:RDF>
  </metadata>
  <defs
     id="defs45" />
  <sodipodi:namedview
     pagecolor="#ffffff"
     bordercolor="#666666"
     borderopacity="1"
     objecttolerance="10"
     gridtolerance="10"
     guidetolerance="10"
     inkscape:pageopacity="0"
     inkscape:pageshadow="2"
     inkscape:window-width="1848"
     inkscape:window-height="1016"
     id="namedview43"
     showgrid="false"
     inkscape:zoom="0.1035801"
     inkscape:cx="834.11402"
     inkscape:cy="-23.865202"
     inkscape:window-x="0"
     inkscape:window-y="0"
     inkscape:window-maximized="1"
     inkscape:current-layer="g1247" />
  <g
     id="g1221"
     transform="matrix(5.2022322,0,0,5.2022322,1546.4189,-142.11667)">
    <circle
       style="fill:#1c1d2b;fill-opacity:1;stroke:none;stroke-width:4.75549;stroke-miterlimit:4;stroke-dasharray:none;stroke-dashoffset:0;stroke-opacity:1"
       id="circle44235"
       cx="-259.76874"
       cy="76.44709"
       r="46.541931" />
    <path
       style="fill:#87f7dd;fill-opacity:1;stroke-width:0.305611"
       clip-path="none"
       d="m -259.9506,32.865608 c -1.1676,0 -2.343,0.053 -3.5244,0.1473 -18.1313,1.44896 -33.7208,14.50396 -38.4266,32.178962 -5.3984,20.27719 4.2556,41.3948 23.1397,50.62058 3.962,1.93569 8.7823,3.42538 12.7765,3.94912 3.1042,0.40688 9.928,0.33819 12.9878,-0.13073 9.9572,-1.52617 19.7341,-6.94298 26.2119,-14.52316 5.072,-5.9349 8.1801,-12.23794 9.9074,-20.0918 0.9846,-4.47818 0.971,-12.73341 -0.029,-17.19531 -2.1024,-9.383702 -6.241,-16.773502 -12.9103,-23.051802 -8.2788,-7.7931 -18.8442,-11.94296 -30.1325,-11.90316 z m 0.2739,2.03966 v 5e-4 c 4.6127,0 9.3109,0.7657 13.9221,2.3921 14.2882,5.0396 24.8519,17.8817 27.1741,33.033202 0.354,2.3085 0.4372,4.3619 0.3142,7.72815 -0.2443,6.6884 -1.3671,11.10538 -4.3496,17.11367 -5.7319,11.54729 -17.1926,20.08127 -29.96,22.30768 -3.2629,0.56875 -11.2753,0.56097 -14.4265,-0.015 -24.1281,-4.40622 -39.3436,-28.72253 -32.7241,-52.297 5.1635,-18.388902 21.954,-30.254302 40.0498,-30.263302 z m 0.1188,4.7987 c -0.8905,10e-5 -0.994,0.1403 -2.2164,2.9797 -1.8815,4.3703 -1.8235,4.0493 -0.741,4.0493 0.591,0 0.9853,-0.1964 1.2128,-0.5596 l 0.9896,-2.2567 c -10e-5,0 -0.01,-0.01 -0.01,-0.01 0.01,-0.2101 0.192,-0.7095 0.4139,-1.11 l 0.4041,-0.7277 1.7281,4.6608 -0.068,-10e-4 c 0.098,0.2092 0.4245,0.3105 1.0583,0.3105 0.9227,0 1.0692,-0.087 0.9002,-0.5348 -0.111,-0.2941 -0.7714,-1.9447 -1.4686,-3.6675 -1.2192,-3.0131 -1.3031,-3.1325 -2.2019,-3.1326 h -6e-4 z m -10.7911,1.5952 c -0.2058,-0.014 -0.5722,0.067 -0.9394,0.2197 -0.7625,0.3159 -0.9189,0.5846 -1.0899,1.8748 -0.1099,0.8283 -0.2673,1.5059 -0.3493,1.5059 -0.082,0 -0.6783,-0.3507 -1.326,-0.7793 -1.1309,-0.7484 -2.5145,-0.8169 -2.9296,-0.1453 -0.1588,0.2571 2.3208,6.4293 2.5802,6.4214 0.091,0 0.474,-0.087 0.8522,-0.1886 0.8672,-0.2323 0.8594,-0.4973 -0.082,-2.5182 l -0.7648,-1.6423 0.7674,0.4961 c 0.4219,0.2726 1.0974,0.7085 1.5007,0.9689 l 0.7333,0.4734 0.216,-1.571 c 0.2388,-1.7355 0.3812,-1.6986 1.2242,0.3188 0.3161,0.7564 0.6004,1.416 0.6315,1.4666 0.1516,0.244 1.6552,-0.3553 1.6552,-0.6589 0,-0.4145 -2.2505,-5.9129 -2.5332,-6.1954 -0.027,-0.027 -0.077,-0.039 -0.1462,-0.046 z m 22.8069,0.6641 c -2.4891,-0.011 -4.7666,2.4495 -3.4437,5.2374 0.7726,1.6283 3.2715,2.6992 4.869,2.0862 0.3943,-0.1513 1.6758,-2.4521 1.6758,-3.0086 0,-0.2238 -2.848,-1.0488 -3.0943,-0.8966 -0.4893,0.3024 -0.2756,1.1008 0.3369,1.2609 0.4794,0.1254 0.5421,0.2741 0.3038,0.7193 -0.6778,1.2663 -3.0349,-0.6655 -2.5342,-2.0768 0.574,-1.6177 2.2808,-2.1318 3.3078,-0.9969 0.6586,0.7277 0.7743,0.7414 1.5452,0.1778 0.5811,-0.4249 0.5779,-0.4499 -0.1509,-1.2258 -0.8358,-0.8895 -1.8414,-1.2689 -2.8154,-1.2769 z m 10.0904,5.2286 -1.8134,1.9182 c -1.6086,1.7012 -1.8133,2.0597 -1.8133,3.1725 0,2.4574 3.1461,4.2252 5.0933,2.8613 0.3548,-0.2486 1.2312,-1.152 1.9476,-2.0077 l 1.3028,-1.5559 -0.6723,-0.6661 -0.6729,-0.6667 -1.5895,1.7658 c -1.6884,1.8756 -2.6859,2.2303 -3.2598,1.1581 -0.497,-0.9287 -0.4121,-1.1301 1.2429,-2.9575 l 1.5585,-1.7208 -0.662,-0.6506 z m -47.8772,2.9492 -0.6708,0.7141 -0.6723,0.7147 2.3616,2.4717 c 1.2986,1.3591 2.4494,2.4712 2.5585,2.4712 0.109,0 1.0152,-0.8249 2.0128,-1.833 1.6922,-1.71 1.779,-1.8673 1.3043,-2.342 -0.4747,-0.4746 -0.5995,-0.4337 -1.8686,0.6062 l -1.3606,1.1152 -1.8325,-1.9591 z m 25.4134,2.8587 v 0.1783 c -0.5159,0.3663 -1.5826,1.2357 -2.2815,1.8779 -0.058,0.053 -0.7941,0.6757 -1.635,1.3824 -0.841,0.7064 -1.5505,1.3084 -1.5767,1.3368 -10.2624,7.989202 -20.3116,17.790402 -13.3335,30.381602 1.2217,2.40549 3.5251,5.25087 5.689,7.028 0.2365,0.19428 0.5315,0.4396 0.6558,0.5452 0.9385,0.79732 3.8933,2.43644 5.2209,2.89594 0.2628,0.091 0.5637,0.20249 0.6687,0.24805 0.3423,0.14761 1.9425,0.56581 2.5553,0.66765 1.2413,0.20638 2.6722,0.31816 4.037,0.34676 v 0.006 c 0.049,-4.2e-4 0.098,4e-4 0.1468,-0.006 0.049,0 0.098,-4.7e-4 0.1467,0.006 v -0.006 c 1.365,-0.0289 2.7957,-0.14038 4.037,-0.34676 0.6129,-0.10184 2.2132,-0.52004 2.5554,-0.66765 0.1051,-0.0456 0.4059,-0.15703 0.6687,-0.24805 1.3276,-0.4595 4.2824,-2.09862 5.2209,-2.89594 0.1244,-0.1056 0.4193,-0.35092 0.6557,-0.5452 2.1639,-1.77713 4.4673,-4.62251 5.6891,-7.028 6.978,-12.5912 -3.0711,-22.3924 -13.3336,-30.381602 -0.026,-0.028 -0.7357,-0.6304 -1.5766,-1.3368 -0.8409,-0.7067 -1.5767,-1.3295 -1.635,-1.3824 -0.6991,-0.6423 -1.7658,-1.5122 -2.2816,-1.8784 v -0.1778 c -0.019,0 -0.074,0.031 -0.1462,0.077 -0.072,-0.046 -0.1275,-0.077 -0.1473,-0.077 z m 0.1473,1.9705 c 0.1132,0.077 0.2989,0.222 0.4992,0.3942 0.2904,0.2496 0.6304,0.536 0.7555,0.6362 0.1252,0.1003 0.3812,0.3155 0.569,0.478 0.1877,0.1625 0.4671,0.399 0.6211,0.5255 0.154,0.1263 0.5379,0.4527 0.8532,0.7251 13.7962,10.881302 22.4002,20.359692 10.8117,34.734742 -3.2052,3.30618 -6.7531,5.15696 -11.1812,5.83274 -0.8821,0.13427 -1.6139,0.17528 -2.929,0.17362 -1.315,0 -2.047,-0.0394 -2.929,-0.17362 -4.4282,-0.67578 -7.976,-2.52656 -11.1813,-5.83274 -11.5885,-14.37505 -2.9843,-23.85344 10.8118,-34.734742 0.3154,-0.2724 0.6992,-0.5988 0.8531,-0.7251 0.1539,-0.1265 0.4335,-0.363 0.6212,-0.5255 0.1876,-0.1625 0.4439,-0.3777 0.569,-0.478 0.1252,-0.1002 0.4652,-0.3866 0.7555,-0.6362 0.2004,-0.1723 0.3871,-0.3176 0.5002,-0.3942 z m -32.5107,4.2715 -0.3271,0.8666 c -0.3087,0.817702 -0.1867,1.035502 2.1441,3.805502 l 2.4717,2.9373 0.4134,-0.7778 c 0.1646,-0.31 0.2376,-0.5594 0.2428,-0.8056 l -3.3155,-4.2726 5.0575,0.4935 c 0.2433,-0.074 0.4527,-0.3002 0.6868,-0.7529 0.2611,-0.505002 0.4297,-0.955402 0.3757,-1.001502 -0.054,-0.046 -1.8198,-0.1758 -3.9238,-0.2878 z m 63.9341,0.037 -5e-4,5e-4 c -0.5674,0 -1.423,0.042 -2.7544,0.1194 -2.0395,0.1193 -3.7483,0.2579 -3.7982,0.3075 -0.2508,0.2507 0.3285,1.104102 0.9013,1.520302 l 3.5005,-0.091 c 0.1294,-0.01 0.1338,-0.038 0.3266,-0.038 h 1.1162 l -2.6417,2.9156 c -0.057,0.099 -0.1466,0.2011 -0.2744,0.3292 -0.4721,0.4732 -0.4761,0.6001 -0.049,1.4268 0.5419,1.0478 0.2877,1.2273 3.2846,-2.3312 1.1103,-1.3182 2.019,-2.5309 2.019,-2.6944 0,-0.1635 -0.1525,-0.581802 -0.3385,-0.929702 -0.2026,-0.3784 -0.3462,-0.5237 -1.2919,-0.5348 z m -31.4606,6.589802 c -0.9846,0 -2.8674,0.214 -3.0892,0.3509 -0.053,0.033 -0.2599,0.076 -0.4584,0.093 -0.5219,0.047 -2.084,0.6338 -3.0675,1.1524 -1.9098,1.0069 -3.7348,2.8644 -4.7207,4.8059 l -0.3632,0.7167 0.01,1.5767 c 0.01,1.5515 0.012,1.5956 0.3746,2.7708 0.347,1.12423 0.3684,1.26803 0.37,2.43709 0,1.08479 -0.025,1.30029 -0.2108,1.70275 -0.1171,0.25345 -0.2553,0.43476 -0.3075,0.40256 -0.052,-0.0319 -0.1829,-0.35414 -0.2904,-0.71522 -0.1471,-0.49371 -0.2784,-0.72932 -0.5302,-0.95033 -0.4103,-0.36409 -0.6767,-0.43299 -1.34,-0.3643 l 0.1866,1.49966 c 0.089,0 0.1941,0.19954 0.2899,0.54983 0.4416,1.61523 1.1925,3.58031 1.5761,4.12533 0.095,0.13544 0.2707,0.43995 0.3897,0.67643 0.323,0.64249 1.311,1.86627 2.1611,2.67737 1.092,1.04177 1.8085,1.52593 3.4814,2.35075 0.8076,0.39827 2.6549,0.90191 3.961,1.08005 1.0896,0.14917 3.3855,0.12621 4.3398,-0.0424 4.2045,-0.74348 7.5086,-3.10902 9.1126,-6.52468 l 0.2827,-0.60307 -0.048,-1.69031 c -0.026,-0.92978 -0.093,-1.81944 -0.1472,-1.97716 -0.4983,-1.42909 -0.623,-2.032 -0.6227,-3.00963 1e-4,-0.81156 0.042,-1.10953 0.2149,-1.55805 0.1186,-0.30637 0.2644,-0.53937 0.3256,-0.51927 0.061,0.019 0.2179,0.3495 0.3493,0.73374 0.3117,0.9117 0.6285,1.17766 1.4743,1.23042 0,0 -0.027,-1.64956 -0.09,-2.00606 -0.1105,-0.669 -0.5046,-1.8761 -0.9307,-2.8494 -1.2841,-2.9333 -3.349,-5.2219 -5.9035,-6.5423 -1.8926,-0.9783 -4.4743,-1.5802 -6.7763,-1.5802 z m -2.837,1.7477 v 5e-4 c 0.017,0 0.028,0.01 0.033,0.01 0.021,0.021 -0.1948,0.5271 -0.48,1.124 -0.2853,0.597 -0.592,1.3221 -0.6817,1.6112 -0.09,0.289 -0.2253,0.6224 -0.3012,0.7405 -0.1345,0.2094 -0.1769,0.2143 -1.6408,0.1959 -2.2219,-0.028 -2.8882,-0.072 -2.8882,-0.1876 0,-0.1838 1.273,-1.3616 1.9767,-1.8288 0.3778,-0.2508 1.045,-0.6236 1.4821,-0.8284 0.7103,-0.3327 2.244,-0.8405 2.5001,-0.8351 z m 5.7345,0.051 h 5e-4 c 0.2538,-0.01 1.0856,0.1899 1.8273,0.4465 0.7997,0.2766 1.9667,0.8956 2.7497,1.4588 0.7493,0.539 1.694,1.4541 1.694,1.6412 0,0.069 -0.7805,0.1013 -2.4227,0.1013 h -2.4215 l -0.5995,-1.5048 c -0.3296,-0.8278 -0.6853,-1.6266 -0.7906,-1.7751 -0.1078,-0.1521 -0.1555,-0.3048 -0.1085,-0.3503 0.011,-0.011 0.035,-0.017 0.071,-0.018 z m -2.1193,0.062 v 0 c 0.1575,0.021 0.6982,0.6597 0.9979,1.1917 0.3446,0.6113 0.8943,1.9596 0.8951,2.1941 -10e-5,0.1842 -0.056,0.1959 -0.9401,0.1959 -0.5167,0 -0.968,-0.027 -1.003,-0.063 -0.098,-0.098 -0.075,-3.4533 0.024,-3.5145 0.01,-0.01 0.016,-0.01 0.026,-0.01 z m -1.5585,0.017 c 0.011,0 0.02,0.01 0.026,0.011 0.047,0.047 0.073,0.8558 0.059,1.7978 l -0.026,1.7131 -0.9338,0.027 c -0.7401,0.022 -0.9438,-2e-4 -0.9855,-0.1095 -0.053,-0.1371 0.4396,-1.4174 0.8641,-2.2475 0.2769,-0.5416 0.8358,-1.2009 0.9958,-1.1921 z m -33.2982,2.4427 -0.05,0.061 c -0.039,0.047 -0.05,0.1134 -0.05,0.2951 0,0.2519 0.041,0.3492 0.1556,0.3659 0.052,0.01 0.058,0.038 0.076,0.3529 0.03,0.5475 0.1236,0.9166 0.3426,1.3633 0.1636,0.3335 0.3799,0.6091 0.8139,1.0371 0.2056,0.2028 0.3933,0.405 0.4165,0.4491 0.063,0.1195 0.026,0.2178 -0.1457,0.3875 -0.084,0.083 -0.1454,0.164 -0.1359,0.1793 0.01,0.015 0.01,0.021 -0.011,0.011 -0.036,-0.023 -0.5345,0.4839 -0.6965,0.7075 -0.07,0.096 -0.1785,0.2806 -0.2424,0.4108 -0.2213,0.4512 -0.3131,0.8203 -0.338,1.3585 -0.016,0.33602 -0.02,0.3561 -0.076,0.36025 -0.1167,0.009 -0.1592,0.10623 -0.1592,0.36587 0,0.21066 0.01,0.24672 0.064,0.30178 l 0.064,0.0625 2.1834,-0.008 2.1838,-0.008 0.05,-0.061 c 0.039,-0.0476 0.05,-0.11464 0.05,-0.29609 0,-0.25189 -0.041,-0.34872 -0.1561,-0.36537 -0.052,-0.008 -0.058,-0.0369 -0.076,-0.35294 -0.03,-0.5467 -0.1229,-0.917 -0.341,-1.3617 -0.1682,-0.3427 -0.3169,-0.533 -0.7896,-1.0107 -0.2315,-0.234 -0.4341,-0.4604 -0.4501,-0.5034 -0.02,-0.054 -0.02,-0.1028 0,-0.156 0.016,-0.043 0.2186,-0.2695 0.4501,-0.5034 0.4727,-0.4778 0.6214,-0.6679 0.7896,-1.0107 0.2181,-0.4447 0.3106,-0.8145 0.341,-1.3612 0.018,-0.3156 0.024,-0.3459 0.076,-0.3535 0.1146,-0.017 0.1561,-0.1135 0.1561,-0.3653 0,-0.1814 -0.011,-0.2489 -0.05,-0.2961 l -0.049,-0.056 h -2.1979 z m 64.0296,0 -0.05,0.061 c -0.039,0.047 -0.05,0.1134 -0.05,0.2951 0,0.2519 0.041,0.3492 0.1561,0.3659 0.052,0.01 0.058,0.038 0.076,0.3529 0.03,0.5475 0.1235,0.9166 0.3426,1.3633 0.1636,0.3335 0.3799,0.6091 0.8139,1.0371 0.2056,0.2028 0.3927,0.405 0.416,0.4491 0.063,0.1195 0.026,0.2178 -0.1452,0.3875 -0.084,0.083 -0.1454,0.164 -0.1359,0.1793 0.01,0.015 0.01,0.021 -0.011,0.011 -0.036,-0.023 -0.5346,0.4839 -0.6966,0.7075 -0.07,0.096 -0.1784,0.2806 -0.2423,0.4108 -0.2213,0.4512 -0.3131,0.8203 -0.338,1.3585 -0.016,0.33602 -0.02,0.3561 -0.076,0.36025 -0.1167,0.009 -0.1591,0.10623 -0.1591,0.36587 0,0.21066 0.01,0.24672 0.064,0.30178 l 0.064,0.0625 2.1834,-0.008 2.1838,-0.008 0.05,-0.061 c 0.039,-0.0476 0.05,-0.11464 0.05,-0.29609 0,-0.25189 -0.041,-0.34872 -0.156,-0.36537 -0.052,-0.008 -0.058,-0.0369 -0.076,-0.35294 -0.03,-0.5467 -0.1229,-0.917 -0.341,-1.3617 -0.1682,-0.3427 -0.317,-0.533 -0.7897,-1.0107 -0.2314,-0.234 -0.4341,-0.4604 -0.45,-0.5034 -0.02,-0.054 -0.02,-0.1028 0,-0.156 0.016,-0.043 0.2186,-0.2695 0.45,-0.5034 0.4727,-0.4778 0.6215,-0.6679 0.7897,-1.0107 0.2181,-0.4447 0.3106,-0.8145 0.341,-1.3612 0.018,-0.3156 0.024,-0.3459 0.076,-0.3535 0.1146,-0.017 0.156,-0.1135 0.156,-0.3653 0,-0.1814 -0.011,-0.2489 -0.05,-0.2961 l -0.05,-0.056 h -2.1973 z m -63.7175,0.7261 h 1.8856 1.8857 l 0.01,0.17 c 0.012,0.2288 -0.042,0.6741 -0.1116,0.9276 -0.073,0.2647 -0.241,0.6226 -0.4134,0.8821 -0.075,0.1121 -0.3411,0.4144 -0.5922,0.6718 -0.6489,0.6648 -0.6492,0.6422 0.01,1.3141 0.2465,0.2519 0.509,0.5499 0.5834,0.662 0.1725,0.2599 0.3403,0.6178 0.4135,0.8821 0.07,0.2535 0.1237,0.6987 0.1116,0.9276 l -0.01,0.17001 h -0.1478 v -0.14831 c 0,-0.01 -0.01,-0.01 -0.01,-0.01 h 0.01 l -0.017,-0.1979 c -0.029,-0.3513 -0.1791,-0.6075 -0.4852,-0.8294 -0.4203,-0.3048 -0.7311,-0.6592 -0.893,-1.0191 -0.1627,-0.3616 -0.253,-0.9017 -0.2,-1.1947 l 0.032,-0.1762 0.4449,-0.4538 c 0.7495,-0.6007 -1.989,-0.602 -1.2532,-0.011 0.5058,0.5159 0.5249,0.5513 0.5028,0.9281 -0.048,0.8113 -0.3911,1.4094 -1.1064,1.9281 -0.3063,0.2221 -0.4626,0.4904 -0.4873,0.8351 l -0.014,0.1922 h 0.01 c -0.01,0 -0.01,0.01 -0.01,0.01 v 0.14778 c -0.089,-0.008 -0.1428,-0.008 -0.1452,-0.008 -0.027,-0.0273 -0.021,-0.36568 0.012,-0.63298 0.059,-0.4808 0.2244,-0.9245 0.5007,-1.341 0.074,-0.1121 0.337,-0.4096 0.5834,-0.6615 0.6579,-0.6718 0.6575,-0.6497 0.01,-1.3146 -0.2511,-0.2573 -0.5177,-0.5597 -0.5923,-0.6718 -0.1724,-0.2595 -0.3402,-0.6169 -0.4134,-0.8816 -0.07,-0.2535 -0.1237,-0.6988 -0.1116,-0.9276 z m 64.0292,0 h 1.8861 1.8857 l 0.01,0.17 c 0.012,0.2288 -0.042,0.6741 -0.1116,0.9276 -0.073,0.2647 -0.241,0.6226 -0.4134,0.8821 -0.075,0.1121 -0.3411,0.4144 -0.5922,0.6718 -0.6489,0.6648 -0.6492,0.6422 0.01,1.3141 0.2465,0.2519 0.509,0.5499 0.5834,0.662 0.1725,0.2599 0.3403,0.6178 0.4134,0.8821 0.07,0.2535 0.1238,0.6987 0.1116,0.9276 l -0.01,0.17001 h -0.1478 v -0.14831 c 0,-0.01 -0.01,-0.01 -0.01,-0.01 h 0.01 l -0.017,-0.1979 c -0.029,-0.3513 -0.1792,-0.6075 -0.4852,-0.8294 -0.4203,-0.3048 -0.7311,-0.6592 -0.893,-1.0191 -0.1627,-0.3616 -0.253,-0.9017 -0.2,-1.1947 l 0.032,-0.1762 0.445,-0.4538 c 0.7495,-0.6007 -1.989,-0.602 -1.2532,-0.011 0.5058,0.5159 0.5249,0.5513 0.5028,0.9281 -0.048,0.8113 -0.3911,1.4094 -1.1064,1.9281 -0.3064,0.2221 -0.4626,0.4904 -0.4873,0.8351 l -0.014,0.1922 h 0.01 c -0.01,0 -0.01,0.01 -0.01,0.01 v 0.14778 c -0.089,-0.008 -0.1423,-0.008 -0.1447,-0.008 -0.027,-0.0273 -0.021,-0.36568 0.012,-0.63298 0.059,-0.4808 0.2249,-0.9245 0.5012,-1.341 0.074,-0.1121 0.3369,-0.4096 0.5834,-0.6615 0.6578,-0.6718 0.6575,-0.6497 0.01,-1.3146 -0.2512,-0.2573 -0.5178,-0.5597 -0.5923,-0.6718 -0.1725,-0.2595 -0.3402,-0.6169 -0.4134,-0.8816 -0.07,-0.2535 -0.1237,-0.6988 -0.1116,-0.9276 z m -40.1444,1.7864 2.5213,0.022 c 1.387,0.011 2.5711,0.04 2.6314,0.063 0.078,0.03 0.086,0.1775 0.028,0.5044 -0.2259,1.2744 -0.3335,2.2485 -0.4238,3.8302 l -0.067,1.17049 h -2.1245 c -1.5858,0 -2.1491,-0.0298 -2.2195,-0.11936 -0.052,-0.0657 -0.2086,-0.48992 -0.3483,-0.94313 -0.4856,-1.577 -0.5729,-3.5485 -0.1865,-4.2064 z m 6.7412,0.048 h 1.233 1.234 v 2.7647 c 0,2.54917 -0.013,2.76849 -0.1674,2.81738 -0.1579,0.0506 -0.543,0.0471 -2.2097,-0.0202 l -0.7048,-0.0284 0.067,-1.26138 c 0.061,-1.1507 0.1261,-1.6862 0.4424,-3.6272 z m 7.7913,0 h 2.8789 2.8789 l 0.2454,0.3892 c 0.1351,0.2139 0.391,0.7075 0.5685,1.097 l 0.3229,0.7085 -0.416,0.4465 c -0.5041,0.5415 -0.8674,1.2585 -1.0722,2.11612 -0.084,0.3529 -0.1789,0.66942 -0.2104,0.70332 -0.031,0.0344 -1.0458,0.0915 -2.2546,0.12816 -1.7374,0.0511 -2.2228,0.0393 -2.3172,-0.0579 -0.079,-0.0817 -0.1213,-0.4471 -0.1219,-1.0837 0,-0.8875 -0.045,-1.309 -0.2941,-2.8716 -0.05,-0.3153 -0.1177,-0.7989 -0.1498,-1.0749 z m -1.9498,0 v 6e-4 c 0.5518,0.013 0.505,0.1962 0.6956,1.2392 0.1654,0.9051 0.4271,4.07614 0.3524,4.27047 -0.036,0.0942 -0.3835,0.12351 -1.4469,0.12351 -0.7696,0 -1.4539,-0.0362 -1.5204,-0.0786 -0.094,-0.0597 -0.1145,-0.68427 -0.095,-2.79408 l 0.025,-2.7167 1.2066,-0.027 c 0.348,-0.01 0.5984,-0.022 0.7824,-0.018 z m -10.7874,6.97376 h 0.7224 c 1.4736,0 2.0093,0.0308 2.0795,0.11936 0.052,0.0657 0.1191,0.76409 0.1498,1.55236 0.03,0.78843 0.1291,1.88524 0.2181,2.43708 0.089,0.55184 0.1659,1.11032 0.1716,1.24177 l 0.01,0.23926 -2.5322,0.009 c -1.3926,0.006 -2.6678,-0.007 -2.8334,-0.0284 -0.2639,-0.0339 -0.3377,-0.11517 -0.5974,-0.65887 -0.1629,-0.34096 -0.296,-0.69627 -0.296,-0.78909 0,-0.0929 0.1316,-0.29493 0.293,-0.44908 0.6252,-0.59875 1.2361,-2.08756 1.2361,-3.01376 0,-0.6051 -0.079,-0.65611 1.3776,-0.65939 z m 5.0916,0 h 6e-4 c 0.1891,0 0.431,0.006 0.7415,0.014 0.79,0.0208 1.4241,0.0784 1.4816,0.13642 0.067,0.067 0.092,0.99462 0.075,2.76987 l -0.026,2.66909 -1.2589,0.0268 c -1.4323,0.0304 -1.2974,0.11652 -1.465,-0.9343 -0.1368,-0.85814 -0.33,-4.33474 -0.2522,-4.53771 0.043,-0.1117 0.1357,-0.1471 0.7033,-0.14417 z m 10.0682,0.0299 v 0.005 h 0.8015 l 2.0029,0.0134 0.068,0.28678 c 0.037,0.15764 0.1124,0.4798 0.1674,0.71626 0.055,0.23664 0.2133,0.83865 0.3519,1.33789 0.1958,0.70517 0.2553,1.14628 0.2661,1.97715 0.01,0.60648 -0.027,1.10935 -0.082,1.16218 -0.1465,0.14285 -5.7553,0.2344 -5.8017,0.0951 -0.02,-0.0608 -3e-4,-0.32943 0.04,-0.59737 0.043,-0.26787 0.1226,-1.26124 0.1778,-2.2071 0.1631,-2.79924 0.1443,-2.69465 0.5013,-2.75022 0.1258,-0.0187 0.7411,-0.0337 1.5058,-0.0362 z m -5.5429,0.029 h 6e-4 0.696 c 0.7585,0.006 1.4327,0.0456 1.4981,0.0858 0.1978,0.12229 0.042,2.33817 -0.3508,4.99298 -0.033,0.22439 -0.1005,0.43262 -0.1494,0.46355 -0.049,0.0294 -0.6062,0.0603 -1.2387,0.0692 -0.9594,0.0122 -1.1631,-0.0107 -1.2304,-0.13642 -0.1137,-0.21204 -0.113,-5.16634 0,-5.34334 0.056,-0.0884 0.2195,-0.12388 0.7746,-0.13179 z m 30.6431,3.0081 c -0.622,0 -1.382,0.82188 -1.6035,1.73477 -0.1354,0.55811 0.018,0.7131 0.9504,0.9617 1.7077,0.45511 1.8127,0.42561 2.0329,-0.57774 0.2298,-1.04566 -0.4692,-2.11873 -1.3798,-2.11873 z m 0,0.92811 c 0.3122,0.0186 0.6116,0.16099 0.7096,0.4165 0.2884,0.75142 -0.4474,1.04807 -1.2847,0.51779 -0.2317,-0.14663 -0.3259,-0.4192 -0.2103,-0.60616 0.1487,-0.24095 0.4733,-0.34583 0.7854,-0.32763 z m -63.4695,1.55596 c -0.6375,0.0315 -1.319,0.38856 -1.479,0.89297 -0.1167,0.36785 0,0.93405 0.292,1.37459 0.5341,0.81523 0.7175,0.87802 1.3627,0.46974 0.4673,-0.29607 0.2515,-1.24849 -0.2826,-1.24849 -0.1835,0 -0.2485,0.13721 -0.1447,0.30541 0.1039,0.16806 0.043,0.3054 -0.1349,0.3054 -0.4555,0 -0.4037,-1.14315 0.059,-1.30484 0.6276,-0.21881 1.1457,0.11012 1.1457,0.72657 0,0.31819 0.1462,0.57827 0.3256,0.57827 0.4928,0 0.2022,-1.5753 -0.3551,-1.92391 -0.2187,-0.13793 -0.4994,-0.19087 -0.7891,-0.17571 z m 29.4168,1.51982 c 0.4967,0 0.9711,0.0252 1.0542,0.0579 0.1315,0.0506 0.1514,0.33015 0.1514,2.14974 0,1.2237 -0.036,2.09238 -0.089,2.09238 -0.1075,0 -0.3142,-0.20087 -0.6238,-0.60666 -0.5509,-0.72245 -1.5738,-3.22953 -1.4495,-3.55328 0.042,-0.10951 0.2516,-0.14004 0.9565,-0.14004 z m -6.2611,0.0124 v 5.3e-4 5.3e-4 c 0.3257,0 0.7427,0.006 1.2754,0.008 l 2.4086,0.0254 0.1158,0.33433 c 0.064,0.18391 0.1861,0.57092 0.2723,0.85989 0.2,0.67019 0.7684,2.03211 1.064,2.54971 0.1255,0.2195 0.2284,0.42371 0.2284,0.45374 0,0.10954 -0.3517,0.0417 -1.1467,-0.22119 -1.7815,-0.58944 -3.1555,-1.45503 -4.4674,-2.81377 -0.4861,-0.50339 -0.8837,-0.98258 -0.8837,-1.06455 0,-0.0995 0.1561,-0.13171 1.1333,-0.13229 z m 16.9628,10e-4 c 0.4957,0 0.8411,0.008 0.8806,0.0232 0.1272,0.0486 0.1173,0.10062 -0.068,0.36743 -0.4458,0.64127 -1.6871,1.82649 -2.4252,2.31563 -1.0014,0.66373 -1.7882,1.05172 -2.8029,1.38078 -0.4553,0.14772 -1.0353,0.29818 -1.2883,0.33539 l -0.46,0.0682 0.3824,-0.69969 c 0.4743,-0.86786 0.9763,-2.1123 1.2072,-2.99309 0.097,-0.36785 0.1884,-0.68594 0.2046,-0.70642 0.037,-0.0445 2.8826,-0.0949 4.3698,-0.0915 z m -6.9567,0.0258 v 0.005 c 0.5007,0 0.997,0.0218 1.0423,0.0672 0.09,0.0901 -0.4435,1.62864 -0.8914,2.57037 -0.2113,0.44413 -0.5412,0.9901 -0.7327,1.21338 v -0.006 c -0.292,0.33999 -0.5011,0.49096 -0.5313,0.3824 -0.01,-0.0132 -0.018,-0.93845 -0.033,-2.05568 -0.018,-1.38755 0.01,-2.0556 0.078,-2.10788 0.062,-0.0445 0.5665,-0.0669 1.0671,-0.0672 z m 30.1227,0.91467 c -0.084,-0.005 -0.1204,0.10599 -0.1204,0.33848 0,0.70268 -0.6289,0.9104 -1.618,0.53435 -1.4061,-0.5347 -1.2737,0.24574 0.1458,0.85937 l 1.3187,0.57052 0.4005,-0.92295 c 0.2816,-0.64974 0.3047,-1.01822 0.077,-1.24645 -0.085,-0.0854 -0.1531,-0.13303 -0.2031,-0.13332 z m -60.6914,1.49603 -1.3503,0.6563 c -1.2855,0.62457 -1.6858,1.3939 -0.6273,1.2056 0.4038,-0.0717 0.4662,0.10149 0.3287,0.91675 -0.1494,0.88601 -0.1201,0.9448 0.2501,0.49454 0.2311,-0.28097 0.669,-0.48782 0.973,-0.45887 0.8849,0.0843 1.264,-0.79068 0.8129,-1.87949 z m -0.5679,1.24179 v 5.1e-4 c 0.024,10e-4 0.048,0.002 0.073,0.0134 0.5668,0.18891 0.6617,0.84751 0.122,0.84751 -0.2661,0 -0.4842,-0.21812 -0.4842,-0.48421 0,-0.23239 0.1245,-0.38759 0.2888,-0.37725 z m 58.1774,0.90176 c -0.097,-0.002 -0.1967,0.003 -0.3008,0.0139 -1.1808,0.13621 -1.6775,1.49204 -0.8728,2.38125 0.6744,0.74515 1.0313,0.77192 1.927,0.1447 1.2646,-0.88588 0.6934,-2.49891 -0.7534,-2.53989 z m -0.2533,0.57049 c 0.5377,0 1.1698,0.82161 0.9302,1.20925 -0.2425,0.39275 -1.2841,0.42064 -1.5193,0.0408 -0.2534,-0.41116 0.1414,-1.25008 0.5891,-1.25008 z m -55.3971,1.45315 c -0.1786,-0.0175 -0.3937,0.10665 -0.772,0.32866 -1.4124,0.82878 -1.5466,1.14107 -0.9364,2.17403 0.3454,0.58431 0.6546,0.82116 0.8371,0.63873 0.1825,-0.18243 0.1433,-0.46736 -0.1069,-0.76896 -0.2182,-0.26328 -0.3082,-0.56824 -0.1985,-0.67799 0.1098,-0.10973 0.3933,0.066 0.63,0.38912 0.2366,0.32308 0.5304,0.48866 0.6521,0.36692 0.1218,-0.12181 0.043,-0.43431 -0.1721,-0.69453 -0.2161,-0.26027 -0.2937,-0.57184 -0.1731,-0.69246 0.1206,-0.12063 0.354,0.0204 0.5178,0.31263 0.1639,0.29284 0.4978,0.53279 0.7431,0.53279 0.3444,0 0.2902,-0.23863 -0.2387,-1.04542 -0.3832,-0.58484 -0.5529,-0.84172 -0.7824,-0.86352 z m 52.5761,1.98181 c -0.1451,-0.005 -0.3861,0.11146 -0.6873,0.38393 -0.7553,0.68379 -0.7956,1.85119 -0.078,2.26912 0.7716,0.44934 1.3269,0.3991 1.9627,-0.17621 0.6883,-0.62275 0.7245,-1.50416 0.073,-1.75443 -0.6011,-0.23058 -1.0418,0.0181 -1.0418,0.58756 0,0.27747 0.1902,0.36473 0.5349,0.24445 0.5094,-0.17764 0.5094,-0.15933 0,0.38084 -0.5012,0.53216 -0.5675,0.53465 -1.0496,0.0527 -0.4817,-0.48215 -0.4779,-0.55327 0.05,-1.13686 0.4552,-0.50306 0.4792,-0.84 0.2372,-0.85111 z m -50.199,1.31516 -0.9772,0.97771 -0.9777,0.97772 0.7255,0.77309 c 0.7021,0.74726 1.231,0.99149 1.231,0.56792 0,-0.11316 -0.2277,-0.45696 -0.5059,-0.7643 -0.5504,-0.60817 -0.1505,-0.78716 0.4397,-0.1969 0.1989,0.19944 0.4575,0.26498 0.5752,0.14729 0.1177,-0.11763 0.052,-0.37629 -0.1468,-0.57515 -0.6216,-0.62164 -0.3951,-0.97507 0.2507,-0.39068 0.9503,0.8601 1.1401,0.2373 0.2108,-0.69194 z m 3.2158,3.29179 c -0.5707,-0.0123 -2.0303,1.81258 -1.6681,2.17918 0.1788,0.18114 0.4532,0.0671 0.7349,-0.3054 0.4276,-0.5655 0.4499,-0.54846 0.4599,0.34726 0.017,1.6633 0.4587,1.74525 1.6133,0.29819 0.527,-0.66104 0.7188,-1.1275 0.5147,-1.25368 -0.1788,-0.11086 -0.5183,0.0534 -0.7539,0.36484 -0.3961,0.52308 -0.4283,0.49241 -0.4382,-0.40979 -0.01,-0.53642 -0.1678,-1.07307 -0.3613,-1.19272 -0.03,-0.0167 -0.063,-0.0274 -0.1013,-0.0274 z m 41.9272,0.61441 c -0.013,-2.1e-4 -0.025,0.002 -0.038,0.007 h -5e-4 c -0.3564,0.13253 -0.3545,0.32174 0.013,1.26868 0.2307,0.59327 0.2155,0.59571 -0.5721,0.0796 -0.9484,-0.62148 -1.3053,-0.29152 -1.0004,0.92347 0.197,0.78489 0.1831,0.7954 -0.3772,0.28835 -0.6205,-0.56145 -1.2982,-0.6985 -1.2982,-0.26252 0,0.37182 2.2393,1.83245 2.5394,1.65624 0.136,-0.0797 0.1565,-0.55637 0.046,-1.05937 l -0.2005,-0.91466 0.7658,0.50175 c 0.4947,0.3242 0.835,0.39013 0.9612,0.18606 0.2764,-0.44723 -0.4399,-2.66761 -0.8392,-2.67428 z m -5.0137,3.46906 c -0.1631,0.0123 -0.4266,0.10041 -0.7808,0.28059 -0.5462,0.27779 -1.0369,0.54303 -1.0909,0.58912 -0.054,0.0462 0.1886,0.64447 0.538,1.32964 l 0.6361,1.24592 1.0666,-0.5085 c 0.5851,-0.27911 1.0661,-0.61841 1.0661,-0.75602 0,-0.33983 -0.534,-0.31118 -1.2423,0.0677 -0.4127,0.22108 -0.5912,0.21865 -0.5912,-0.0109 0,-0.17928 0.2068,-0.40529 0.4589,-0.50228 0.7941,-0.30467 0.4971,-0.74168 -0.3819,-0.56174 l -0.8413,0.17261 0.6878,-0.50903 c 0.7087,-0.52475 0.8341,-0.86344 0.4749,-0.83714 z m -31.0218,0.11885 c -0.025,0.003 -0.045,0.0103 -0.055,0.0253 -0.5709,0.79076 -1.3184,2.38898 -1.1813,2.52595 0.383,0.38315 0.6993,0.13208 1.2903,-1.02629 0.4056,-0.79515 0.5049,-1.2741 0.2915,-1.40613 -0.1336,-0.0818 -0.2682,-0.12996 -0.3452,-0.11885 z m 2.9145,1.51257 c -0.9195,-0.0115 -1.0585,0.63066 -0.3162,1.44642 0.692,0.76073 0.5486,1.28453 -0.1582,0.57775 -0.2449,-0.24456 -0.6111,-0.34216 -0.8144,-0.21654 -0.4009,0.24784 -0.019,0.69263 0.8816,1.02579 0.7208,0.26692 0.8179,0.248 1.2299,-0.24857 0.3218,-0.38778 0.267,-0.59677 -0.3214,-1.22317 -0.3902,-0.41524 -0.5559,-0.75449 -0.3685,-0.75449 0.1875,0 0.4332,0.14899 0.5462,0.33176 0.1469,0.23731 0.3043,0.23411 0.5509,-0.0124 0.4242,-0.42413 -0.2335,-0.91546 -1.2299,-0.92655 z m 23.9376,0.20206 c -0.1519,0.0287 -0.2107,0.32671 -0.06,0.92552 l 0.1913,0.76067 -0.8538,-0.5979 c -1.3081,-0.91615 -1.6553,-0.59738 -1.1063,1.01391 0.4912,1.44171 1.1881,1.88081 0.942,0.59375 -0.1699,-0.88921 -0.01,-0.94036 0.924,-0.28834 1.036,0.72572 1.3071,0.29403 0.7824,-1.24593 -0.2693,-0.79039 -0.6228,-1.19872 -0.8191,-1.16168 z m -17.3194,1.67688 v 5.3e-4 5.3e-4 c -0.6272,9.8e-4 -0.8411,0.22627 -0.3297,0.54258 0.2925,0.18071 0.353,0.57941 0.2067,1.35911 -0.1651,0.88032 -0.1113,1.10329 0.2656,1.10329 0.2618,0 0.4718,-0.26115 0.4718,-0.58603 0,-0.91091 0.3301,-1.55339 0.7974,-1.55339 0.8782,5e-5 0.3828,-0.59196 -0.6588,-0.78754 -0.2896,-0.0542 -0.5439,-0.0791 -0.753,-0.0791 z m 9.4398,0.25477 v 5.3e-4 c -1.2489,0 -1.2589,0.0115 -1.0698,0.95498 0.1052,0.52531 0.1913,1.22897 0.1913,1.56372 0,0.4817 0.1426,0.57017 0.6873,0.42426 0.3782,-0.10197 0.9285,-0.18863 1.2226,-0.18863 0.9803,-0.0116 0.5508,-0.6146 -0.4584,-0.64801 l -0.9932,-0.0326 0.8408,-0.33176 c 1.0497,-0.41502 1.109,-0.95954 0.076,-0.70022 -0.4406,0.11092 -0.7643,0.0603 -0.7643,-0.11938 0,-0.17129 0.344,-0.3116 0.7643,-0.3116 0.4202,0 0.7638,-0.13737 0.7638,-0.30541 0,-0.16803 -0.5671,-0.30593 -1.2604,-0.30593 z m -5.4633,0.30593 c -0.1681,0 -0.3054,0.61857 -0.3054,1.37512 0,0.75626 0.1373,1.3751 0.3054,1.3751 0.168,0 0.3054,-0.20625 0.3054,-0.45837 0,-0.25471 0.2719,-0.45836 0.6114,-0.45836 0.3396,0 0.6118,0.20365 0.6118,0.45836 -1e-4,0.70628 0.5172,0.54285 0.724,-0.22892 0.325,-1.213 0.2153,-2.06293 -0.2661,-2.06293 -0.2521,0 -0.4579,0.20619 -0.4579,0.45837 -1e-4,0.25466 -0.2722,0.45836 -0.6118,0.45836 -0.3395,0 -0.6114,-0.2037 -0.6114,-0.45836 0,-0.25218 -0.1374,-0.45837 -0.3054,-0.45837 z"
       id="path44237"
       inkscape:connector-curvature="0" />
  </g>
  <g
     id="g1247"
     transform="matrix(1.7342696,0,0,1.7342696,319.73633,471.19084)" />
</svg>
